<svg width="130" height="36" viewBox="0 0 130 36" fill="none" xmlns="http://www.w3.org/2000/svg">
<g clip-path="url(#clip0_363_173)">
<path d="M27.8644 20.1792C26.8741 15.1954 31.6046 12.2725 31.6046 12.2725C31.6046 12.2725 29.7615 9.60605 26.6641 8.92008C23.5681 8.23261 22.0186 9.09154 20.4721 9.73575C18.9242 10.3815 18.1517 10.3815 18.1517 10.3815C15.9179 10.3815 14.2849 8.01632 10.0287 9.09311C7.09657 9.83308 4.00984 13.218 3.45214 17.2579C2.89444 21.2993 4.09794 26.4561 6.41833 30.4527C8.73873 34.4525 11.1025 35.9556 12.7801 35.9989C14.4579 36.0406 16.1326 34.797 18.1517 34.4942C20.1725 34.1944 21.4161 35.2265 23.3981 35.7842C25.3725 36.3404 26.0646 35.8243 28.3387 33.8901C30.6189 31.9559 32.6829 26.4083 32.6829 26.4083C32.6829 26.4083 28.8547 25.1661 27.8644 20.1792Z" fill="black"/>
<path d="M23.48 5.69596C25.6737 3.46058 24.9307 0 24.9307 0C24.9307 0 21.8502 0.540727 19.7862 2.68809C17.7238 4.83703 18.0652 8.23115 18.0652 8.23115C18.0652 8.23115 21.2863 7.92992 23.48 5.69596Z" fill="black"/>
</g>
<path d="M50.75 5.46C50.75 6.17333 50.6033 6.79667 50.31 7.33C50.0233 7.85667 49.6 8.26667 49.04 8.56C48.4867 8.85333 47.8233 9 47.05 9H44.69V1.94H47.05C47.8233 1.94 48.4867 2.08667 49.04 2.38C49.6 2.66667 50.0233 3.07333 50.31 3.6C50.6033 4.12667 50.75 4.74667 50.75 5.46ZM46.96 7.97C47.8067 7.97 48.4567 7.75 48.91 7.31C49.3633 6.87 49.59 6.25333 49.59 5.46C49.59 4.66667 49.3633 4.05 48.91 3.61C48.4567 3.17 47.8067 2.95 46.96 2.95H45.83V7.97H46.96ZM54.417 3.42C54.9504 3.42 55.4304 3.53333 55.857 3.76C56.2837 3.98667 56.617 4.31333 56.857 4.74C57.097 5.16667 57.217 5.66667 57.217 6.24C57.217 6.82 57.097 7.32333 56.857 7.75C56.617 8.17667 56.2837 8.50333 55.857 8.73C55.4304 8.95667 54.9504 9.07 54.417 9.07C53.8837 9.07 53.4037 8.95667 52.977 8.73C52.557 8.50333 52.2237 8.17667 51.977 7.75C51.737 7.31667 51.617 6.81333 51.617 6.24C51.617 5.66667 51.737 5.16667 51.977 4.74C52.2237 4.31333 52.557 3.98667 52.977 3.76C53.4037 3.53333 53.8837 3.42 54.417 3.42ZM54.417 4.41C54.1237 4.41 53.8537 4.47667 53.607 4.61C53.3604 4.74333 53.1604 4.95 53.007 5.23C52.8604 5.50333 52.787 5.84 52.787 6.24C52.787 6.64667 52.8604 6.98667 53.007 7.26C53.1604 7.53333 53.3604 7.73667 53.607 7.87C53.8537 8.00333 54.1237 8.07 54.417 8.07C54.7104 8.07 54.9804 8.00333 55.227 7.87C55.4737 7.73667 55.6704 7.53333 55.817 7.26C55.9704 6.98667 56.047 6.64667 56.047 6.24C56.047 5.84 55.9704 5.50333 55.817 5.23C55.6704 4.95 55.4737 4.74333 55.227 4.61C54.9804 4.47667 54.7104 4.41 54.417 4.41ZM66.033 3.49L64.503 9H63.243L61.883 4.74L60.503 9H59.253L57.723 3.49H58.873L59.923 7.95L61.303 3.49H62.503L63.903 7.95L64.953 3.49H66.033ZM69.8891 3.4C70.5291 3.4 71.0425 3.60667 71.4291 4.02C71.8158 4.43333 72.0091 5.02333 72.0091 5.79V9H70.8691V5.91C70.8691 5.41667 70.7425 5.03667 70.4891 4.77C70.2358 4.49667 69.8891 4.36 69.4491 4.36C68.9958 4.36 68.6325 4.50667 68.3591 4.8C68.0858 5.08667 67.9491 5.51 67.9491 6.07V9H66.8091V3.49H67.9491V4.7C68.0958 4.28667 68.3425 3.96667 68.6891 3.74C69.0358 3.51333 69.4358 3.4 69.8891 3.4ZM74.4823 1.6V9H73.3423V1.6H74.4823ZM78.3819 3.42C78.9152 3.42 79.3952 3.53333 79.8219 3.76C80.2485 3.98667 80.5819 4.31333 80.8219 4.74C81.0619 5.16667 81.1819 5.66667 81.1819 6.24C81.1819 6.82 81.0619 7.32333 80.8219 7.75C80.5819 8.17667 80.2485 8.50333 79.8219 8.73C79.3952 8.95667 78.9152 9.07 78.3819 9.07C77.8485 9.07 77.3685 8.95667 76.9419 8.73C76.5219 8.50333 76.1885 8.17667 75.9419 7.75C75.7019 7.31667 75.5819 6.81333 75.5819 6.24C75.5819 5.66667 75.7019 5.16667 75.9419 4.74C76.1885 4.31333 76.5219 3.98667 76.9419 3.76C77.3685 3.53333 77.8485 3.42 78.3819 3.42ZM78.3819 4.41C78.0885 4.41 77.8185 4.47667 77.5719 4.61C77.3252 4.74333 77.1252 4.95 76.9719 5.23C76.8252 5.50333 76.7519 5.84 76.7519 6.24C76.7519 6.64667 76.8252 6.98667 76.9719 7.26C77.1252 7.53333 77.3252 7.73667 77.5719 7.87C77.8185 8.00333 78.0885 8.07 78.3819 8.07C78.6752 8.07 78.9452 8.00333 79.1919 7.87C79.4385 7.73667 79.6352 7.53333 79.7819 7.26C79.9352 6.98667 80.0119 6.64667 80.0119 6.24C80.0119 5.84 79.9352 5.50333 79.7819 5.23C79.6352 4.95 79.4385 4.74333 79.1919 4.61C78.9452 4.47667 78.6752 4.41 78.3819 4.41ZM84.4879 3.42C84.9879 3.42 85.4146 3.54333 85.7679 3.79C86.1212 4.03667 86.3712 4.36333 86.5179 4.77V3.49H87.6579V9H86.5179V7.72C86.3712 8.12667 86.1212 8.45333 85.7679 8.7C85.4146 8.94667 84.9879 9.07 84.4879 9.07C84.0079 9.07 83.5779 8.95667 83.1979 8.73C82.8246 8.50333 82.5312 8.17667 82.3179 7.75C82.1046 7.32333 81.9979 6.82 81.9979 6.24C81.9979 5.66667 82.1046 5.16667 82.3179 4.74C82.5312 4.31333 82.8246 3.98667 83.1979 3.76C83.5779 3.53333 84.0079 3.42 84.4879 3.42ZM84.8379 4.42C84.3312 4.42 83.9246 4.58333 83.6179 4.91C83.3179 5.23 83.1679 5.67333 83.1679 6.24C83.1679 6.80667 83.3179 7.25333 83.6179 7.58C83.9246 7.9 84.3312 8.06 84.8379 8.06C85.1579 8.06 85.4446 7.98667 85.6979 7.84C85.9512 7.68667 86.1512 7.47333 86.2979 7.2C86.4446 6.92667 86.5179 6.60667 86.5179 6.24C86.5179 5.88 86.4446 5.56333 86.2979 5.29C86.1512 5.01 85.9512 4.79667 85.6979 4.65C85.4446 4.49667 85.1579 4.42 84.8379 4.42ZM91.2359 3.42C91.7359 3.42 92.1626 3.54333 92.5159 3.79C92.8693 4.03667 93.1159 4.36333 93.2559 4.77V1.6H94.4059V9H93.2559V7.72C93.1159 8.12667 92.8693 8.45333 92.5159 8.7C92.1626 8.94667 91.7359 9.07 91.2359 9.07C90.7559 9.07 90.3259 8.95667 89.9459 8.73C89.5726 8.50333 89.2793 8.17667 89.0659 7.75C88.8526 7.32333 88.7459 6.82 88.7459 6.24C88.7459 5.66667 88.8526 5.16667 89.0659 4.74C89.2793 4.31333 89.5726 3.98667 89.9459 3.76C90.3259 3.53333 90.7559 3.42 91.2359 3.42ZM91.5859 4.42C91.0793 4.42 90.6726 4.58333 90.3659 4.91C90.0659 5.23 89.9159 5.67333 89.9159 6.24C89.9159 6.80667 90.0659 7.25333 90.3659 7.58C90.6726 7.9 91.0793 8.06 91.5859 8.06C91.9059 8.06 92.1926 7.98667 92.4459 7.84C92.6993 7.68667 92.8993 7.47333 93.0459 7.2C93.1926 6.92667 93.2659 6.60667 93.2659 6.24C93.2659 5.88 93.1926 5.56333 93.0459 5.29C92.8993 5.01 92.6993 4.79667 92.4459 4.65C92.1926 4.49667 91.9059 4.42 91.5859 4.42ZM100.638 3.42C101.171 3.42 101.651 3.53333 102.078 3.76C102.504 3.98667 102.838 4.31333 103.078 4.74C103.318 5.16667 103.438 5.66667 103.438 6.24C103.438 6.82 103.318 7.32333 103.078 7.75C102.838 8.17667 102.504 8.50333 102.078 8.73C101.651 8.95667 101.171 9.07 100.638 9.07C100.104 9.07 99.6244 8.95667 99.1977 8.73C98.7777 8.50333 98.4444 8.17667 98.1977 7.75C97.9577 7.31667 97.8377 6.81333 97.8377 6.24C97.8377 5.66667 97.9577 5.16667 98.1977 4.74C98.4444 4.31333 98.7777 3.98667 99.1977 3.76C99.6244 3.53333 100.104 3.42 100.638 3.42ZM100.638 4.41C100.344 4.41 100.074 4.47667 99.8277 4.61C99.5811 4.74333 99.3811 4.95 99.2277 5.23C99.0811 5.50333 99.0077 5.84 99.0077 6.24C99.0077 6.64667 99.0811 6.98667 99.2277 7.26C99.3811 7.53333 99.5811 7.73667 99.8277 7.87C100.074 8.00333 100.344 8.07 100.638 8.07C100.931 8.07 101.201 8.00333 101.448 7.87C101.694 7.73667 101.891 7.53333 102.038 7.26C102.191 6.98667 102.268 6.64667 102.268 6.24C102.268 5.84 102.191 5.50333 102.038 5.23C101.891 4.95 101.694 4.74333 101.448 4.61C101.201 4.47667 100.931 4.41 100.638 4.41ZM107.614 3.4C108.254 3.4 108.767 3.60667 109.154 4.02C109.54 4.43333 109.734 5.02333 109.734 5.79V9H108.594V5.91C108.594 5.41667 108.467 5.03667 108.214 4.77C107.96 4.49667 107.614 4.36 107.174 4.36C106.72 4.36 106.357 4.50667 106.084 4.8C105.81 5.08667 105.674 5.51 105.674 6.07V9H104.534V3.49H105.674V4.7C105.82 4.28667 106.067 3.96667 106.414 3.74C106.76 3.51333 107.16 3.4 107.614 3.4ZM116.181 8.01V9H115.481C114.894 9 114.447 8.86 114.141 8.58C113.841 8.29333 113.691 7.82 113.691 7.16V4.46H112.901V3.49H113.691V2.12H114.841V3.49H116.171V4.46H114.841V7.18C114.841 7.49333 114.897 7.71 115.011 7.83C115.131 7.95 115.337 8.01 115.631 8.01H116.181ZM120.329 3.4C120.969 3.4 121.482 3.60667 121.869 4.02C122.255 4.43333 122.449 5.02333 122.449 5.79V9H121.309V5.91C121.309 5.41667 121.182 5.03667 120.929 4.77C120.675 4.49667 120.329 4.36 119.889 4.36C119.435 4.36 119.072 4.50667 118.799 4.8C118.525 5.08667 118.389 5.51 118.389 6.07V9H117.249V1.6H118.389V4.7C118.535 4.28667 118.782 3.96667 119.129 3.74C119.475 3.51333 119.875 3.4 120.329 3.4ZM128.902 5.98C128.902 6.16667 128.888 6.33 128.862 6.47H124.622C124.642 7.03667 124.798 7.45667 125.092 7.73C125.385 8.00333 125.748 8.14 126.182 8.14C126.562 8.14 126.882 8.04333 127.142 7.85C127.408 7.65667 127.572 7.4 127.632 7.08H128.852C128.778 7.46667 128.625 7.81 128.392 8.11C128.158 8.41 127.855 8.64667 127.482 8.82C127.108 8.98667 126.692 9.07 126.232 9.07C125.698 9.07 125.225 8.95667 124.812 8.73C124.405 8.50333 124.085 8.17667 123.852 7.75C123.618 7.32333 123.502 6.82 123.502 6.24C123.502 5.66667 123.618 5.16667 123.852 4.74C124.085 4.31333 124.405 3.98667 124.812 3.76C125.225 3.53333 125.698 3.42 126.232 3.42C126.772 3.42 127.242 3.53333 127.642 3.76C128.048 3.98 128.358 4.28667 128.572 4.68C128.792 5.06667 128.902 5.5 128.902 5.98ZM127.752 5.95C127.765 5.59 127.702 5.29 127.562 5.05C127.428 4.80333 127.242 4.62333 127.002 4.51C126.768 4.39 126.512 4.33 126.232 4.33C125.785 4.33 125.412 4.46667 125.112 4.74C124.812 5.01333 124.648 5.41667 124.622 5.95H127.752Z" fill="#333333"/>
<path d="M51.776 25.392H46.816L45.872 28H44.304L48.48 16.928H50.128L54.288 28H52.72L51.776 25.392ZM51.36 24.256L49.296 18.56L47.232 24.256H51.36ZM60.6098 19.104C61.3884 19.104 62.0818 19.2853 62.6898 19.648C63.2978 20.0107 63.7724 20.5333 64.1138 21.216C64.4658 21.8987 64.6418 22.6987 64.6418 23.616C64.6418 24.5333 64.4658 25.3333 64.1138 26.016C63.7724 26.688 63.2978 27.2053 62.6898 27.568C62.0818 27.9307 61.3884 28.112 60.6098 28.112C59.7564 28.112 59.0311 27.8987 58.4338 27.472C57.8471 27.0347 57.4418 26.464 57.2178 25.76V32.16H55.7618V19.216H57.2178V21.456C57.4418 20.752 57.8471 20.1867 58.4338 19.76C59.0311 19.3227 59.7564 19.104 60.6098 19.104ZM60.1938 20.4C59.6284 20.4 59.1164 20.5333 58.6578 20.8C58.1991 21.056 57.8418 21.4293 57.5858 21.92C57.3298 22.4107 57.2018 22.976 57.2018 23.616C57.2018 24.256 57.3298 24.8213 57.5858 25.312C57.8418 25.792 58.1991 26.1653 58.6578 26.432C59.1164 26.6987 59.6284 26.832 60.1938 26.832C61.1004 26.832 61.8204 26.5493 62.3538 25.984C62.8978 25.408 63.1698 24.6187 63.1698 23.616C63.1698 22.6133 62.8978 21.8293 62.3538 21.264C61.8204 20.688 61.1004 20.4 60.1938 20.4ZM71.391 19.104C72.1697 19.104 72.863 19.2853 73.471 19.648C74.079 20.0107 74.5537 20.5333 74.895 21.216C75.247 21.8987 75.423 22.6987 75.423 23.616C75.423 24.5333 75.247 25.3333 74.895 26.016C74.5537 26.688 74.079 27.2053 73.471 27.568C72.863 27.9307 72.1697 28.112 71.391 28.112C70.5377 28.112 69.8123 27.8987 69.215 27.472C68.6283 27.0347 68.223 26.464 67.999 25.76V32.16H66.543V19.216H67.999V21.456C68.223 20.752 68.6283 20.1867 69.215 19.76C69.8123 19.3227 70.5377 19.104 71.391 19.104ZM70.975 20.4C70.4097 20.4 69.8977 20.5333 69.439 20.8C68.9803 21.056 68.623 21.4293 68.367 21.92C68.111 22.4107 67.983 22.976 67.983 23.616C67.983 24.256 68.111 24.8213 68.367 25.312C68.623 25.792 68.9803 26.1653 69.439 26.432C69.8977 26.6987 70.4097 26.832 70.975 26.832C71.8817 26.832 72.6017 26.5493 73.135 25.984C73.679 25.408 73.951 24.6187 73.951 23.616C73.951 22.6133 73.679 21.8293 73.135 21.264C72.6017 20.688 71.8817 20.4 70.975 20.4ZM88.4134 25.072C88.4134 25.6053 88.2854 26.1013 88.0294 26.56C87.7734 27.0187 87.384 27.392 86.8614 27.68C86.3387 27.968 85.6934 28.112 84.9254 28.112C84.1787 28.112 83.512 27.9787 82.9254 27.712C82.3494 27.4347 81.8854 27.0613 81.5334 26.592C81.192 26.112 80.9947 25.568 80.9414 24.96H82.4934C82.5254 25.28 82.632 25.5947 82.8134 25.904C83.0054 26.2027 83.272 26.4533 83.6134 26.656C83.9654 26.848 84.3867 26.944 84.8774 26.944C85.5174 26.944 86.008 26.7733 86.3494 26.432C86.6907 26.0907 86.8614 25.6533 86.8614 25.12C86.8614 24.6613 86.7387 24.288 86.4934 24C86.2587 23.712 85.9654 23.488 85.6134 23.328C85.2614 23.1573 84.7814 22.976 84.1734 22.784C83.4587 22.5493 82.8827 22.3307 82.4454 22.128C82.0187 21.9147 81.6507 21.6 81.3414 21.184C81.0427 20.768 80.8934 20.2187 80.8934 19.536C80.8934 18.9493 81.032 18.432 81.3094 17.984C81.5974 17.536 82.0027 17.1893 82.5254 16.944C83.0587 16.6987 83.6827 16.576 84.3974 16.576C85.5067 16.576 86.3867 16.848 87.0374 17.392C87.688 17.9253 88.0667 18.608 88.1734 19.44H86.6054C86.52 18.992 86.2907 18.5973 85.9174 18.256C85.544 17.9147 85.0374 17.744 84.3974 17.744C83.8107 17.744 83.3414 17.8987 82.9894 18.208C82.6374 18.5067 82.4614 18.9333 82.4614 19.488C82.4614 19.9253 82.5734 20.2827 82.7974 20.56C83.032 20.8267 83.32 21.04 83.6614 21.2C84.0027 21.3493 84.472 21.52 85.0694 21.712C85.7947 21.9467 86.376 22.1707 86.8134 22.384C87.2614 22.5973 87.64 22.9227 87.9494 23.36C88.2587 23.7867 88.4134 24.3573 88.4134 25.072ZM94.5631 26.72V28H93.4751C92.5791 28 91.9071 27.7867 91.4591 27.36C91.0218 26.9333 90.8031 26.2187 90.8031 25.216V20.48H89.4911V19.216H90.8031V17.024H92.2751V19.216H94.5471V20.48H92.2751V25.248C92.2751 25.8133 92.3765 26.2027 92.5791 26.416C92.7925 26.6187 93.1551 26.72 93.6671 26.72H94.5631ZM100.324 19.104C101.167 19.104 101.919 19.2853 102.58 19.648C103.252 20.0107 103.775 20.5333 104.148 21.216C104.532 21.8987 104.724 22.6987 104.724 23.616C104.724 24.5333 104.532 25.3333 104.148 26.016C103.775 26.688 103.252 27.2053 102.58 27.568C101.919 27.9307 101.167 28.112 100.324 28.112C99.4812 28.112 98.7239 27.9307 98.0519 27.568C97.3905 27.2053 96.8679 26.688 96.4839 26.016C96.0999 25.3333 95.9079 24.5333 95.9079 23.616C95.9079 22.6987 96.0999 21.8987 96.4839 21.216C96.8679 20.5333 97.3905 20.0107 98.0519 19.648C98.7239 19.2853 99.4812 19.104 100.324 19.104ZM100.324 20.384C99.8012 20.384 99.3159 20.5013 98.8679 20.736C98.4305 20.9707 98.0732 21.3333 97.7959 21.824C97.5292 22.304 97.3959 22.9013 97.3959 23.616C97.3959 24.32 97.5292 24.9173 97.7959 25.408C98.0732 25.888 98.4305 26.2453 98.8679 26.48C99.3159 26.7147 99.8012 26.832 100.324 26.832C100.847 26.832 101.327 26.7147 101.764 26.48C102.212 26.2453 102.569 25.888 102.836 25.408C103.113 24.9173 103.252 24.32 103.252 23.616C103.252 22.9013 103.113 22.304 102.836 21.824C102.569 21.3333 102.212 20.9707 101.764 20.736C101.327 20.5013 100.847 20.384 100.324 20.384ZM108.077 20.992C108.365 20.384 108.786 19.9147 109.341 19.584C109.896 19.2427 110.557 19.072 111.325 19.072V20.656H110.877C110.056 20.656 109.384 20.8693 108.861 21.296C108.338 21.712 108.077 22.4053 108.077 23.376V28H106.621V19.216H108.077V20.992ZM120.842 23.12C120.842 23.4293 120.82 23.696 120.778 23.92H113.754C113.786 24.9227 114.068 25.6747 114.602 26.176C115.146 26.6773 115.807 26.928 116.586 26.928C117.29 26.928 117.876 26.752 118.346 26.4C118.826 26.0373 119.119 25.5573 119.226 24.96H120.778C120.671 25.568 120.431 26.112 120.058 26.592C119.695 27.072 119.22 27.4453 118.634 27.712C118.047 27.9787 117.386 28.112 116.65 28.112C115.807 28.112 115.06 27.9307 114.41 27.568C113.759 27.2053 113.247 26.688 112.874 26.016C112.511 25.3333 112.33 24.5333 112.33 23.616C112.33 22.6987 112.511 21.8987 112.874 21.216C113.247 20.5333 113.759 20.0107 114.41 19.648C115.06 19.2853 115.807 19.104 116.65 19.104C117.503 19.104 118.244 19.2853 118.874 19.648C119.514 20.0107 119.999 20.496 120.33 21.104C120.671 21.712 120.842 22.384 120.842 23.12ZM119.37 23.216C119.402 22.5653 119.295 22.0213 119.05 21.584C118.804 21.1467 118.468 20.8213 118.042 20.608C117.615 20.3947 117.151 20.288 116.65 20.288C115.85 20.288 115.178 20.5387 114.634 21.04C114.09 21.5307 113.796 22.256 113.754 23.216H119.37Z" fill="#333333"/>
<defs>
<clipPath id="clip0_363_173">
<rect width="36" height="36" fill="white"/>
</clipPath>
</defs>
</svg>
