<svg width="137" height="36" viewBox="0 0 137 36" fill="none" xmlns="http://www.w3.org/2000/svg">
<path d="M29.498 15.8409L24.6208 13.0239L19.6276 18.0171L24.6204 23.01L29.5146 20.1836C30.2778 19.7199 30.7332 18.9099 30.7332 18.0171C30.7332 17.1243 30.2774 16.3143 29.498 15.8409Z" fill="#FFCE00"/>
<path d="M19.6276 18.0172L6.02717 4.31885C5.55413 4.79189 5.26685 5.43377 5.26685 6.14333V29.8493C5.26685 30.5589 5.55413 31.2008 6.02717 31.6742L19.6276 18.0172Z" fill="url(#paint0_linear_363_161)"/>
<path d="M19.6275 18.0171L24.6207 13.0239L24.6287 13.016L17.9384 9.16399L9.11914 3.98071C8.32498 3.49075 7.36198 3.47383 6.5509 3.92995C6.36514 4.04803 6.19594 4.16647 6.0271 4.31839L19.6275 18.0171Z" fill="#00F076"/>
<path d="M6.0271 31.6737C6.19594 31.8256 6.36514 31.944 6.5509 32.0621C6.95626 32.2817 7.3789 32.4002 7.80118 32.4002C8.2573 32.4002 8.6965 32.2652 9.10222 32.0286L17.9381 26.8702L24.6283 23.0182L24.6204 23.0103L19.6275 18.0171L6.0271 31.6737Z" fill="#F63448"/>
<path d="M47.92 1.88C48.76 1.88 49.46 2.08667 50.02 2.5C50.58 2.91333 50.95 3.47667 51.13 4.19H49.93C49.7767 3.81 49.5233 3.50667 49.17 3.28C48.8233 3.05333 48.41 2.94 47.93 2.94C47.49 2.94 47.0933 3.04333 46.74 3.25C46.3933 3.45667 46.12 3.75 45.92 4.13C45.7267 4.51 45.63 4.95667 45.63 5.47C45.63 6.01 45.73 6.47333 45.93 6.86C46.13 7.24667 46.41 7.54333 46.77 7.75C47.1367 7.95 47.56 8.05 48.04 8.05C48.6267 8.05 49.13 7.87 49.55 7.51C49.97 7.14333 50.2233 6.64333 50.31 6.01H47.72V5.17H51.27V6.26C51.19 6.78 51.0033 7.25333 50.71 7.68C50.4233 8.1 50.04 8.43667 49.56 8.69C49.0867 8.94333 48.5433 9.07 47.93 9.07C47.2433 9.07 46.6367 8.91667 46.11 8.61C45.5833 8.30333 45.1767 7.88 44.89 7.34C44.6033 6.79333 44.46 6.17 44.46 5.47C44.46 4.77 44.6033 4.15 44.89 3.61C45.1767 3.06333 45.58 2.64 46.1 2.34C46.6267 2.03333 47.2333 1.88 47.92 1.88ZM53.5644 2.86V5H56.1644V5.88H53.5644V8.07H56.4644V9H52.4244V1.94H56.4644V2.86H53.5644ZM62.1109 1.94V2.86H60.1409V9H58.9909V2.86H57.0309V1.94H62.1109ZM66.4452 1.94V9H65.3052V1.94H66.4452ZM72.3648 1.94V2.86H70.3948V9H69.2448V2.86H67.2848V1.94H72.3648ZM78.8291 1.85C79.4825 1.85 80.0725 2.00333 80.5991 2.31C81.1325 2.61667 81.5491 3.04667 81.8491 3.6C82.1558 4.14667 82.3091 4.76667 82.3091 5.46C82.3091 6.15333 82.1558 6.77667 81.8491 7.33C81.5491 7.87667 81.1325 8.30667 80.5991 8.62C80.0725 8.92667 79.4825 9.08 78.8291 9.08C78.1691 9.08 77.5725 8.92667 77.0391 8.62C76.5125 8.30667 76.0958 7.87667 75.7891 7.33C75.4825 6.77667 75.3291 6.15333 75.3291 5.46C75.3291 4.76667 75.4825 4.14667 75.7891 3.6C76.0958 3.04667 76.5125 2.61667 77.0391 2.31C77.5725 2.00333 78.1691 1.85 78.8291 1.85ZM78.8291 2.91C78.3758 2.91 77.9725 3.01333 77.6191 3.22C77.2658 3.42667 76.9891 3.72333 76.7891 4.11C76.5958 4.49667 76.4991 4.94667 76.4991 5.46C76.4991 5.97333 76.5958 6.42333 76.7891 6.81C76.9891 7.19667 77.2658 7.49333 77.6191 7.7C77.9725 7.90667 78.3758 8.01 78.8291 8.01C79.2758 8.01 79.6725 7.90667 80.0191 7.7C80.3725 7.49333 80.6458 7.19667 80.8391 6.81C81.0391 6.42333 81.1391 5.97333 81.1391 5.46C81.1391 4.94667 81.0391 4.49667 80.8391 4.11C80.6458 3.72333 80.3725 3.42667 80.0191 3.22C79.6725 3.01333 79.2758 2.91 78.8291 2.91ZM89.1695 9H88.0295L84.5995 3.79V9H83.4595V1.95H84.5995L88.0295 7.18V1.95H89.1695V9Z" fill="#333333"/>
<path d="M50.192 28.256C49.1253 28.256 48.1813 28.032 47.36 27.584C46.5387 27.136 45.8987 26.4907 45.44 25.648C44.9813 24.8053 44.752 23.8027 44.752 22.64C44.752 21.8827 44.864 21.1467 45.088 20.432C45.3227 19.7067 45.6693 19.0507 46.128 18.464C46.5973 17.8773 47.1787 17.4133 47.872 17.072C48.576 16.72 49.392 16.544 50.32 16.544C50.896 16.544 51.4773 16.624 52.064 16.784C52.6613 16.9333 53.184 17.1467 53.632 17.424L53.568 16.656H54.448V20.32H53.872C53.8293 19.648 53.648 19.0827 53.328 18.624C53.0187 18.1547 52.6133 17.7973 52.112 17.552C51.6107 17.3067 51.0507 17.184 50.432 17.184C49.6747 17.184 48.9813 17.4027 48.352 17.84C47.7333 18.2667 47.2373 18.864 46.864 19.632C46.5013 20.4 46.32 21.28 46.32 22.272C46.32 23.2747 46.5013 24.1707 46.864 24.96C47.2267 25.7493 47.728 26.368 48.368 26.816C49.0187 27.264 49.7653 27.488 50.608 27.488C51.0347 27.488 51.4933 27.424 51.984 27.296C52.4747 27.168 52.928 26.9653 53.344 26.688V23.184C53.1627 23.1947 52.976 23.2053 52.784 23.216C52.592 23.2267 52.4053 23.2373 52.224 23.248V22.544H55.84V23.072C55.5413 23.072 55.312 23.152 55.152 23.312C54.992 23.4613 54.88 23.648 54.816 23.872C54.752 24.0853 54.7147 24.2987 54.704 24.512C54.6933 24.7147 54.688 24.8693 54.688 24.976V27.424H54.256C54.0853 27.424 53.8507 27.456 53.552 27.52C53.2533 27.584 52.912 27.6907 52.528 27.84C52.1973 27.968 51.8133 28.0693 51.376 28.144C50.9387 28.2187 50.544 28.256 50.192 28.256ZM60.8439 28.256C60.0972 28.256 59.4199 28.0853 58.8119 27.744C58.2039 27.392 57.7185 26.912 57.3559 26.304C57.0039 25.6853 56.8279 24.9813 56.8279 24.192C56.8279 23.3493 57.0039 22.592 57.3559 21.92C57.7079 21.248 58.1879 20.72 58.7959 20.336C59.4039 19.9413 60.0865 19.744 60.8439 19.744C61.5905 19.744 62.2679 19.9253 62.8759 20.288C63.4839 20.64 63.9692 21.12 64.3319 21.728C64.6945 22.336 64.8759 23.0293 64.8759 23.808C64.8759 24.6293 64.6945 25.3813 64.3319 26.064C63.9799 26.736 63.4999 27.2693 62.8919 27.664C62.2839 28.0587 61.6012 28.256 60.8439 28.256ZM60.9719 27.616C61.5372 27.616 61.9852 27.456 62.3159 27.136C62.6465 26.816 62.8812 26.4 63.0199 25.888C63.1692 25.376 63.2439 24.8373 63.2439 24.272C63.2439 23.792 63.1959 23.3227 63.0999 22.864C63.0145 22.3947 62.8759 21.9733 62.6839 21.6C62.4919 21.216 62.2412 20.912 61.9319 20.688C61.6332 20.464 61.2705 20.352 60.8439 20.352C60.2892 20.352 59.8359 20.512 59.4839 20.832C59.1319 21.152 58.8705 21.568 58.6999 22.08C58.5399 22.592 58.4599 23.1413 58.4599 23.728C58.4599 24.3893 58.5505 25.0187 58.7319 25.616C58.9132 26.2027 59.1905 26.6827 59.5639 27.056C59.9372 27.4293 60.4065 27.616 60.9719 27.616ZM70.2033 28.256C69.4566 28.256 68.7793 28.0853 68.1713 27.744C67.5633 27.392 67.0779 26.912 66.7153 26.304C66.3633 25.6853 66.1873 24.9813 66.1873 24.192C66.1873 23.3493 66.3633 22.592 66.7153 21.92C67.0673 21.248 67.5473 20.72 68.1553 20.336C68.7633 19.9413 69.4459 19.744 70.2033 19.744C70.9499 19.744 71.6273 19.9253 72.2353 20.288C72.8433 20.64 73.3286 21.12 73.6913 21.728C74.0539 22.336 74.2353 23.0293 74.2353 23.808C74.2353 24.6293 74.0539 25.3813 73.6913 26.064C73.3393 26.736 72.8593 27.2693 72.2513 27.664C71.6433 28.0587 70.9606 28.256 70.2033 28.256ZM70.3313 27.616C70.8966 27.616 71.3446 27.456 71.6753 27.136C72.0059 26.816 72.2406 26.4 72.3793 25.888C72.5286 25.376 72.6033 24.8373 72.6033 24.272C72.6033 23.792 72.5553 23.3227 72.4593 22.864C72.3739 22.3947 72.2353 21.9733 72.0433 21.6C71.8513 21.216 71.6006 20.912 71.2913 20.688C70.9926 20.464 70.6299 20.352 70.2033 20.352C69.6486 20.352 69.1953 20.512 68.8433 20.832C68.4913 21.152 68.2299 21.568 68.0593 22.08C67.8993 22.592 67.8193 23.1413 67.8193 23.728C67.8193 24.3893 67.9099 25.0187 68.0913 25.616C68.2726 26.2027 68.5499 26.6827 68.9233 27.056C69.2966 27.4293 69.7659 27.616 70.3313 27.616ZM79.4506 32.336C78.4906 32.336 77.7173 32.2293 77.1306 32.016C76.544 31.8027 76.1173 31.5307 75.8506 31.2C75.584 30.8693 75.4506 30.528 75.4506 30.176C75.4506 29.8453 75.5253 29.552 75.6746 29.296C75.8346 29.0507 76.0266 28.8373 76.2506 28.656C76.4853 28.4747 76.7093 28.3413 76.9226 28.256C76.5813 28.1387 76.3093 27.984 76.1066 27.792C75.9146 27.5893 75.8186 27.3227 75.8186 26.992C75.8186 26.6187 75.968 26.272 76.2666 25.952C76.5653 25.6213 76.9493 25.4187 77.4186 25.344C76.928 25.1093 76.5333 24.784 76.2346 24.368C75.9466 23.952 75.8026 23.4667 75.8026 22.912C75.8026 22.272 75.968 21.7173 76.2986 21.248C76.6293 20.768 77.0506 20.4 77.5626 20.144C78.0853 19.8773 78.624 19.744 79.1786 19.744C79.904 19.744 80.5813 19.9413 81.2106 20.336C81.3706 19.888 81.6266 19.52 81.9786 19.232C82.3306 18.9333 82.72 18.784 83.1466 18.784C83.424 18.784 83.632 18.8587 83.7706 19.008C83.92 19.1467 83.9946 19.3387 83.9946 19.584C83.9946 19.7013 83.9413 19.8453 83.8346 20.016C83.7386 20.176 83.5626 20.2507 83.3066 20.24C83.1253 20.24 82.976 20.1867 82.8586 20.08C82.7413 19.9733 82.6666 19.84 82.6346 19.68C82.368 19.7227 82.16 19.8507 82.0106 20.064C81.8613 20.2667 81.76 20.4907 81.7066 20.736C81.9626 20.9707 82.1653 21.2533 82.3146 21.584C82.4746 21.9147 82.5546 22.2667 82.5546 22.64C82.5546 23.2373 82.3946 23.7707 82.0746 24.24C81.7653 24.7093 81.3546 25.0773 80.8426 25.344C80.3306 25.6 79.776 25.728 79.1786 25.728C78.976 25.728 78.8 25.7173 78.6506 25.696C78.5013 25.664 78.32 25.648 78.1066 25.648C77.712 25.648 77.392 25.744 77.1466 25.936C76.9013 26.128 76.816 26.3573 76.8906 26.624C76.976 26.88 77.2373 27.0453 77.6746 27.12C78.112 27.184 78.6986 27.232 79.4346 27.264C80.256 27.296 80.96 27.392 81.5466 27.552C82.1333 27.712 82.5813 27.9573 82.8906 28.288C83.2106 28.6293 83.3706 29.088 83.3706 29.664C83.3706 30.0907 83.2533 30.4693 83.0186 30.8C82.7946 31.1413 82.4906 31.424 82.1066 31.648C81.7333 31.872 81.312 32.0427 80.8426 32.16C80.384 32.2773 79.92 32.336 79.4506 32.336ZM79.2266 25.152C79.824 25.152 80.2666 24.944 80.5546 24.528C80.8533 24.1013 81.0026 23.5787 81.0026 22.96C81.0026 22.4907 80.9333 22.0533 80.7946 21.648C80.656 21.2427 80.448 20.9173 80.1706 20.672C79.904 20.4267 79.5626 20.304 79.1466 20.304C78.5706 20.304 78.1226 20.5227 77.8026 20.96C77.4933 21.3867 77.3386 21.92 77.3386 22.56C77.3386 23.328 77.504 23.952 77.8346 24.432C78.1653 24.912 78.6293 25.152 79.2266 25.152ZM79.4346 31.712C80.352 31.712 81.0666 31.5413 81.5786 31.2C82.0906 30.8587 82.3466 30.4587 82.3466 30C82.3466 29.6053 82.2133 29.3013 81.9466 29.088C81.68 28.8853 81.3173 28.7413 80.8586 28.656C80.4 28.5813 79.872 28.5387 79.2746 28.528C78.9866 28.5173 78.704 28.5013 78.4266 28.48C78.1493 28.4693 77.8826 28.4427 77.6266 28.4C77.0186 28.8053 76.7146 29.3333 76.7146 29.984C76.7146 30.5067 76.96 30.9227 77.4506 31.232C77.952 31.552 78.6133 31.712 79.4346 31.712ZM84.669 27.52C84.9997 27.52 85.229 27.44 85.357 27.28C85.485 27.1093 85.5597 26.88 85.581 26.592C85.6023 26.2933 85.613 25.952 85.613 25.568V18C85.613 17.8293 85.613 17.6693 85.613 17.52C85.6237 17.36 85.6397 17.1733 85.661 16.96C85.469 16.9707 85.277 16.9813 85.085 16.992C84.9037 17.0027 84.717 17.0133 84.525 17.024V16.352C84.9943 16.352 85.357 16.3307 85.613 16.288C85.8797 16.2453 86.077 16.192 86.205 16.128C86.3437 16.064 86.4503 15.9947 86.525 15.92H86.989L87.005 26.304C87.005 26.5173 86.9997 26.7093 86.989 26.88C86.9783 27.04 86.957 27.2107 86.925 27.392C87.0957 27.3813 87.261 27.376 87.421 27.376C87.5917 27.3653 87.7623 27.3547 87.933 27.344V28H84.669V27.52ZM93.0604 28.256C92.3244 28.256 91.6577 28.0853 91.0604 27.744C90.4737 27.392 90.0097 26.9013 89.6684 26.272C89.327 25.632 89.1564 24.88 89.1564 24.016C89.1564 23.2693 89.3217 22.5707 89.6524 21.92C89.9937 21.2693 90.4684 20.7467 91.0764 20.352C91.6844 19.9467 92.3884 19.744 93.1884 19.744C93.7857 19.744 94.3297 19.872 94.8204 20.128C95.311 20.384 95.7004 20.7733 95.9884 21.296C96.287 21.8187 96.4364 22.48 96.4364 23.28L90.8044 23.376C90.7937 24.6027 90.9964 25.5893 91.4124 26.336C91.8284 27.072 92.5057 27.44 93.4444 27.44C93.775 27.44 94.111 27.3813 94.4524 27.264C94.8044 27.1467 95.1297 26.9867 95.4284 26.784C95.727 26.5813 95.967 26.3573 96.1484 26.112L96.5324 26.432C96.2444 26.88 95.8977 27.2373 95.4924 27.504C95.087 27.7707 94.671 27.9627 94.2444 28.08C93.8177 28.1973 93.423 28.256 93.0604 28.256ZM90.8524 22.704H94.9324C94.9324 22.32 94.8737 21.952 94.7564 21.6C94.6497 21.2373 94.4684 20.944 94.2124 20.72C93.9564 20.4853 93.6204 20.368 93.2044 20.368C92.5857 20.368 92.0684 20.5547 91.6524 20.928C91.247 21.2907 90.9804 21.8827 90.8524 22.704ZM107.625 19.104C108.404 19.104 109.097 19.2853 109.705 19.648C110.313 20.0107 110.788 20.5333 111.129 21.216C111.481 21.8987 111.657 22.6987 111.657 23.616C111.657 24.5333 111.481 25.3333 111.129 26.016C110.788 26.688 110.313 27.2053 109.705 27.568C109.097 27.9307 108.404 28.112 107.625 28.112C106.772 28.112 106.047 27.8987 105.449 27.472C104.863 27.0347 104.457 26.464 104.233 25.76V32.16H102.777V19.216H104.233V21.456C104.457 20.752 104.863 20.1867 105.449 19.76C106.047 19.3227 106.772 19.104 107.625 19.104ZM107.209 20.4C106.644 20.4 106.132 20.5333 105.673 20.8C105.215 21.056 104.857 21.4293 104.601 21.92C104.345 22.4107 104.217 22.976 104.217 23.616C104.217 24.256 104.345 24.8213 104.601 25.312C104.857 25.792 105.215 26.1653 105.673 26.432C106.132 26.6987 106.644 26.832 107.209 26.832C108.116 26.832 108.836 26.5493 109.369 25.984C109.913 25.408 110.185 24.6187 110.185 23.616C110.185 22.6133 109.913 21.8293 109.369 21.264C108.836 20.688 108.116 20.4 107.209 20.4ZM115.015 16.16V28H113.559V16.16H115.015ZM120.956 19.104C121.809 19.104 122.529 19.3173 123.116 19.744C123.713 20.1707 124.129 20.7413 124.364 21.456V19.216H125.82V28H124.364V25.76C124.129 26.4747 123.713 27.0453 123.116 27.472C122.529 27.8987 121.809 28.112 120.956 28.112C120.177 28.112 119.484 27.9307 118.876 27.568C118.268 27.2053 117.788 26.688 117.436 26.016C117.094 25.3333 116.924 24.5333 116.924 23.616C116.924 22.6987 117.094 21.8987 117.436 21.216C117.788 20.5333 118.268 20.0107 118.876 19.648C119.484 19.2853 120.177 19.104 120.956 19.104ZM121.372 20.4C120.476 20.4 119.756 20.688 119.212 21.264C118.678 21.8293 118.412 22.6133 118.412 23.616C118.412 24.6187 118.678 25.408 119.212 25.984C119.756 26.5493 120.476 26.832 121.372 26.832C121.948 26.832 122.46 26.6987 122.908 26.432C123.366 26.1653 123.724 25.792 123.98 25.312C124.236 24.8213 124.364 24.256 124.364 23.616C124.364 22.976 124.236 22.4107 123.98 21.92C123.724 21.4293 123.366 21.056 122.908 20.8C122.46 20.5333 121.948 20.4 121.372 20.4ZM128.745 19.216L131.593 26.128L134.233 19.216H135.849L130.633 32.16H128.985L130.809 27.856L127.113 19.216H128.745Z" fill="#333333"/>
<defs>
<linearGradient id="paint0_linear_363_161" x1="-0.811395" y1="24.8352" x2="12.8661" y2="11.1574" gradientUnits="userSpaceOnUse">
<stop stop-color="#00E2FF"/>
<stop offset="1" stop-color="#00C5FF"/>
</linearGradient>
</defs>
</svg>
